<mxfile host="app.diagrams.net" modified="2023-10-07T21:35:44.949Z" agent="Mozilla/5.0 (Windows NT 10.0; Win64; x64) AppleWebKit/537.36 (KHTML, like Gecko) Chrome/117.0.0.0 Safari/537.36" etag="bGwuGfOLujl2_gH1xDXF" version="22.0.4" type="github">
  <diagram name="Página-1" id="IipWSNltIHu40_G6JX_h">
    <mxGraphModel dx="1290" dy="545" grid="0" gridSize="10" guides="1" tooltips="1" connect="1" arrows="1" fold="1" page="1" pageScale="1" pageWidth="1169" pageHeight="827" math="0" shadow="0">
      <root>
        <mxCell id="0" />
        <mxCell id="1" parent="0" />
        <mxCell id="o3eAjCkWNtNKVxoIS3OZ-1" value="" style="rounded=1;whiteSpace=wrap;html=1;fillColor=#c6eec4;strokeColor=#82b366;" parent="1" vertex="1">
          <mxGeometry x="100" y="140" width="910" height="480" as="geometry" />
        </mxCell>
        <mxCell id="o3eAjCkWNtNKVxoIS3OZ-27" value="" style="edgeStyle=orthogonalEdgeStyle;rounded=0;orthogonalLoop=1;jettySize=auto;html=1;entryX=0.5;entryY=1;entryDx=0;entryDy=0;strokeWidth=4;" parent="1" source="o3eAjCkWNtNKVxoIS3OZ-2" target="o3eAjCkWNtNKVxoIS3OZ-7" edge="1">
          <mxGeometry relative="1" as="geometry">
            <mxPoint x="230" y="340" as="targetPoint" />
          </mxGeometry>
        </mxCell>
        <mxCell id="o3eAjCkWNtNKVxoIS3OZ-2" value="&lt;font style=&quot;font-size: 25px;&quot;&gt;&lt;b&gt;&lt;i&gt;σ&lt;/i&gt;&lt;/b&gt;&lt;/font&gt;" style="rounded=1;whiteSpace=wrap;html=1;strokeWidth=4;fillColor=#e3f207;" parent="1" vertex="1">
          <mxGeometry x="180" y="450" width="100" height="60" as="geometry" />
        </mxCell>
        <mxCell id="o3eAjCkWNtNKVxoIS3OZ-34" value="" style="edgeStyle=orthogonalEdgeStyle;rounded=0;orthogonalLoop=1;jettySize=auto;html=1;entryX=0;entryY=0.5;entryDx=0;entryDy=0;strokeWidth=4;" parent="1" source="o3eAjCkWNtNKVxoIS3OZ-4" target="o3eAjCkWNtNKVxoIS3OZ-10" edge="1">
          <mxGeometry relative="1" as="geometry">
            <mxPoint x="400" y="340" as="targetPoint" />
            <Array as="points">
              <mxPoint x="400" y="355" />
            </Array>
          </mxGeometry>
        </mxCell>
        <mxCell id="o3eAjCkWNtNKVxoIS3OZ-4" value="&lt;font style=&quot;font-size: 25px;&quot;&gt;&lt;b&gt;&lt;i&gt;σ&lt;/i&gt;&lt;/b&gt;&lt;/font&gt;" style="rounded=1;whiteSpace=wrap;html=1;strokeWidth=4;fillColor=#96fa00;" parent="1" vertex="1">
          <mxGeometry x="350" y="450" width="100" height="60" as="geometry" />
        </mxCell>
        <mxCell id="o3eAjCkWNtNKVxoIS3OZ-5" value="&lt;font style=&quot;font-size: 25px;&quot;&gt;&lt;b&gt;&lt;i&gt;tanh&lt;/i&gt;&lt;/b&gt;&lt;/font&gt;" style="rounded=1;whiteSpace=wrap;html=1;strokeWidth=4;fillColor=#fac400;" parent="1" vertex="1">
          <mxGeometry x="520" y="450" width="100" height="60" as="geometry" />
        </mxCell>
        <mxCell id="o3eAjCkWNtNKVxoIS3OZ-36" value="" style="edgeStyle=orthogonalEdgeStyle;rounded=0;orthogonalLoop=1;jettySize=auto;html=1;entryX=0;entryY=0.5;entryDx=0;entryDy=0;strokeWidth=4;" parent="1" source="o3eAjCkWNtNKVxoIS3OZ-6" target="o3eAjCkWNtNKVxoIS3OZ-11" edge="1">
          <mxGeometry relative="1" as="geometry">
            <mxPoint x="750" y="340" as="targetPoint" />
            <Array as="points">
              <mxPoint x="750" y="355" />
            </Array>
          </mxGeometry>
        </mxCell>
        <mxCell id="o3eAjCkWNtNKVxoIS3OZ-6" value="&lt;font style=&quot;font-size: 25px;&quot;&gt;&lt;b&gt;&lt;i&gt;σ&lt;/i&gt;&lt;/b&gt;&lt;/font&gt;" style="rounded=1;whiteSpace=wrap;html=1;strokeWidth=4;fillColor=#ff0000;" parent="1" vertex="1">
          <mxGeometry x="700" y="450" width="100" height="60" as="geometry" />
        </mxCell>
        <mxCell id="o3eAjCkWNtNKVxoIS3OZ-7" value="&lt;font size=&quot;1&quot; style=&quot;&quot;&gt;&lt;b style=&quot;font-size: 25px;&quot;&gt;X&lt;/b&gt;&lt;/font&gt;" style="ellipse;whiteSpace=wrap;html=1;aspect=fixed;strokeWidth=4;fillColor=#d9a5f3;strokeColor=#9673a6;" parent="1" vertex="1">
          <mxGeometry x="205" y="190" width="50" height="50" as="geometry" />
        </mxCell>
        <mxCell id="o3eAjCkWNtNKVxoIS3OZ-22" value="" style="edgeStyle=orthogonalEdgeStyle;rounded=0;orthogonalLoop=1;jettySize=auto;html=1;strokeWidth=4;" parent="1" source="o3eAjCkWNtNKVxoIS3OZ-9" edge="1">
          <mxGeometry relative="1" as="geometry">
            <mxPoint x="1050" y="215" as="targetPoint" />
          </mxGeometry>
        </mxCell>
        <mxCell id="o3eAjCkWNtNKVxoIS3OZ-9" value="&lt;font size=&quot;1&quot; style=&quot;&quot;&gt;&lt;b style=&quot;font-size: 25px;&quot;&gt;+&lt;/b&gt;&lt;/font&gt;" style="ellipse;whiteSpace=wrap;html=1;aspect=fixed;strokeWidth=4;fillColor=#d9a5f3;" parent="1" vertex="1">
          <mxGeometry x="545" y="190" width="50" height="50" as="geometry" />
        </mxCell>
        <mxCell id="o3eAjCkWNtNKVxoIS3OZ-31" value="" style="edgeStyle=orthogonalEdgeStyle;rounded=0;orthogonalLoop=1;jettySize=auto;html=1;strokeWidth=4;" parent="1" source="o3eAjCkWNtNKVxoIS3OZ-10" target="o3eAjCkWNtNKVxoIS3OZ-9" edge="1">
          <mxGeometry relative="1" as="geometry" />
        </mxCell>
        <mxCell id="o3eAjCkWNtNKVxoIS3OZ-10" value="&lt;b&gt;&lt;font style=&quot;font-size: 25px;&quot;&gt;X&lt;/font&gt;&lt;/b&gt;" style="ellipse;whiteSpace=wrap;html=1;aspect=fixed;strokeWidth=4;fillColor=#d9a5f3;" parent="1" vertex="1">
          <mxGeometry x="545" y="330" width="50" height="50" as="geometry" />
        </mxCell>
        <mxCell id="o3eAjCkWNtNKVxoIS3OZ-11" value="&lt;font style=&quot;font-size: 25px;&quot;&gt;&lt;b&gt;X&lt;/b&gt;&lt;/font&gt;" style="ellipse;whiteSpace=wrap;html=1;aspect=fixed;strokeWidth=4;fillColor=#d9a5f3;" parent="1" vertex="1">
          <mxGeometry x="845" y="330" width="50" height="50" as="geometry" />
        </mxCell>
        <mxCell id="o3eAjCkWNtNKVxoIS3OZ-12" value="&lt;font style=&quot;font-size: 25px;&quot;&gt;&lt;b&gt;&lt;i&gt;tanh&lt;/i&gt;&lt;/b&gt;&lt;/font&gt;" style="ellipse;whiteSpace=wrap;html=1;strokeWidth=4;fillColor=#eb00d7;" parent="1" vertex="1">
          <mxGeometry x="810" y="260" width="120" height="50" as="geometry" />
        </mxCell>
        <mxCell id="o3eAjCkWNtNKVxoIS3OZ-13" value="" style="endArrow=classic;html=1;rounded=0;strokeWidth=4;" parent="1" edge="1">
          <mxGeometry width="50" height="50" relative="1" as="geometry">
            <mxPoint x="70" y="550" as="sourcePoint" />
            <mxPoint x="200" y="550" as="targetPoint" />
          </mxGeometry>
        </mxCell>
        <mxCell id="o3eAjCkWNtNKVxoIS3OZ-14" value="" style="endArrow=none;html=1;rounded=0;entryX=0;entryY=0.5;entryDx=0;entryDy=0;strokeWidth=4;" parent="1" target="o3eAjCkWNtNKVxoIS3OZ-7" edge="1">
          <mxGeometry width="50" height="50" relative="1" as="geometry">
            <mxPoint x="70" y="215" as="sourcePoint" />
            <mxPoint x="460" y="420" as="targetPoint" />
          </mxGeometry>
        </mxCell>
        <mxCell id="o3eAjCkWNtNKVxoIS3OZ-15" value="" style="endArrow=none;html=1;rounded=0;strokeWidth=4;" parent="1" edge="1">
          <mxGeometry width="50" height="50" relative="1" as="geometry">
            <mxPoint x="190" y="550" as="sourcePoint" />
            <mxPoint x="750" y="550" as="targetPoint" />
          </mxGeometry>
        </mxCell>
        <mxCell id="o3eAjCkWNtNKVxoIS3OZ-16" value="" style="endArrow=none;html=1;rounded=0;entryX=0.5;entryY=1;entryDx=0;entryDy=0;strokeWidth=4;" parent="1" target="o3eAjCkWNtNKVxoIS3OZ-4" edge="1">
          <mxGeometry width="50" height="50" relative="1" as="geometry">
            <mxPoint x="400" y="550" as="sourcePoint" />
            <mxPoint x="225" y="235" as="targetPoint" />
          </mxGeometry>
        </mxCell>
        <mxCell id="o3eAjCkWNtNKVxoIS3OZ-17" value="" style="endArrow=none;html=1;rounded=0;entryX=0;entryY=0.5;entryDx=0;entryDy=0;strokeWidth=4;exitX=1;exitY=0.5;exitDx=0;exitDy=0;" parent="1" source="o3eAjCkWNtNKVxoIS3OZ-7" target="o3eAjCkWNtNKVxoIS3OZ-9" edge="1">
          <mxGeometry width="50" height="50" relative="1" as="geometry">
            <mxPoint x="280" y="214.47" as="sourcePoint" />
            <mxPoint x="415" y="214.47" as="targetPoint" />
          </mxGeometry>
        </mxCell>
        <mxCell id="o3eAjCkWNtNKVxoIS3OZ-18" value="" style="endArrow=none;html=1;rounded=0;entryX=0.5;entryY=1;entryDx=0;entryDy=0;strokeWidth=4;" parent="1" target="o3eAjCkWNtNKVxoIS3OZ-5" edge="1">
          <mxGeometry width="50" height="50" relative="1" as="geometry">
            <mxPoint x="570" y="550" as="sourcePoint" />
            <mxPoint x="245" y="255" as="targetPoint" />
          </mxGeometry>
        </mxCell>
        <mxCell id="o3eAjCkWNtNKVxoIS3OZ-19" value="" style="endArrow=classic;html=1;rounded=0;entryX=0.5;entryY=1;entryDx=0;entryDy=0;strokeWidth=4;" parent="1" target="o3eAjCkWNtNKVxoIS3OZ-6" edge="1">
          <mxGeometry width="50" height="50" relative="1" as="geometry">
            <mxPoint x="750" y="552" as="sourcePoint" />
            <mxPoint x="870" y="620" as="targetPoint" />
          </mxGeometry>
        </mxCell>
        <mxCell id="o3eAjCkWNtNKVxoIS3OZ-28" value="" style="endArrow=none;html=1;rounded=0;entryX=0.5;entryY=1;entryDx=0;entryDy=0;strokeWidth=4;" parent="1" edge="1">
          <mxGeometry width="50" height="50" relative="1" as="geometry">
            <mxPoint x="229.74" y="550" as="sourcePoint" />
            <mxPoint x="229.74" y="510" as="targetPoint" />
          </mxGeometry>
        </mxCell>
        <mxCell id="o3eAjCkWNtNKVxoIS3OZ-30" value="" style="endArrow=none;html=1;rounded=0;exitX=0.5;exitY=0;exitDx=0;exitDy=0;entryX=0.5;entryY=1;entryDx=0;entryDy=0;strokeWidth=4;" parent="1" source="o3eAjCkWNtNKVxoIS3OZ-5" target="o3eAjCkWNtNKVxoIS3OZ-10" edge="1">
          <mxGeometry width="50" height="50" relative="1" as="geometry">
            <mxPoint x="680" y="470" as="sourcePoint" />
            <mxPoint x="730" y="420" as="targetPoint" />
          </mxGeometry>
        </mxCell>
        <mxCell id="o3eAjCkWNtNKVxoIS3OZ-37" value="" style="endArrow=none;html=1;rounded=0;exitX=0.5;exitY=0;exitDx=0;exitDy=0;strokeWidth=4;" parent="1" source="o3eAjCkWNtNKVxoIS3OZ-11" edge="1">
          <mxGeometry width="50" height="50" relative="1" as="geometry">
            <mxPoint x="595" y="460" as="sourcePoint" />
            <mxPoint x="870" y="310" as="targetPoint" />
          </mxGeometry>
        </mxCell>
        <mxCell id="o3eAjCkWNtNKVxoIS3OZ-40" value="" style="endArrow=none;html=1;rounded=0;endSize=3;strokeWidth=4;startSize=3;jumpSize=2;strokeColor=default;" parent="1" edge="1">
          <mxGeometry width="50" height="50" relative="1" as="geometry">
            <mxPoint x="870" y="260" as="sourcePoint" />
            <mxPoint x="870" y="215" as="targetPoint" />
          </mxGeometry>
        </mxCell>
        <mxCell id="o3eAjCkWNtNKVxoIS3OZ-41" value="" style="endArrow=none;html=1;rounded=0;entryX=0.5;entryY=1;entryDx=0;entryDy=0;strokeWidth=4;" parent="1" target="o3eAjCkWNtNKVxoIS3OZ-11" edge="1">
          <mxGeometry width="50" height="50" relative="1" as="geometry">
            <mxPoint x="870" y="550" as="sourcePoint" />
            <mxPoint x="573" y="296" as="targetPoint" />
          </mxGeometry>
        </mxCell>
        <mxCell id="o3eAjCkWNtNKVxoIS3OZ-42" value="" style="edgeStyle=orthogonalEdgeStyle;rounded=0;orthogonalLoop=1;jettySize=auto;html=1;strokeWidth=4;" parent="1" edge="1">
          <mxGeometry relative="1" as="geometry">
            <mxPoint x="750" y="550" as="sourcePoint" />
            <mxPoint x="1050" y="550" as="targetPoint" />
          </mxGeometry>
        </mxCell>
        <mxCell id="o3eAjCkWNtNKVxoIS3OZ-43" value="" style="endArrow=none;html=1;rounded=0;strokeWidth=4;" parent="1" edge="1">
          <mxGeometry width="50" height="50" relative="1" as="geometry">
            <mxPoint x="960" y="550" as="sourcePoint" />
            <mxPoint x="960" y="228" as="targetPoint" />
          </mxGeometry>
        </mxCell>
        <mxCell id="o3eAjCkWNtNKVxoIS3OZ-44" value="" style="endArrow=classic;html=1;rounded=0;strokeWidth=4;" parent="1" edge="1">
          <mxGeometry width="50" height="50" relative="1" as="geometry">
            <mxPoint x="960" y="200" as="sourcePoint" />
            <mxPoint x="960" y="100" as="targetPoint" />
          </mxGeometry>
        </mxCell>
        <mxCell id="o3eAjCkWNtNKVxoIS3OZ-45" value="" style="endArrow=none;html=1;rounded=0;strokeWidth=4;" parent="1" edge="1">
          <mxGeometry width="50" height="50" relative="1" as="geometry">
            <mxPoint x="140" y="640" as="sourcePoint" />
            <mxPoint x="140" y="550" as="targetPoint" />
          </mxGeometry>
        </mxCell>
        <mxCell id="o3eAjCkWNtNKVxoIS3OZ-46" value="&lt;font style=&quot;font-size: 25px;&quot;&gt;&lt;b&gt;&lt;i&gt;C&lt;sub&gt;t-1&lt;/sub&gt;&lt;/i&gt;&lt;/b&gt;&lt;/font&gt;" style="text;html=1;strokeColor=none;fillColor=none;align=center;verticalAlign=middle;whiteSpace=wrap;rounded=0;" parent="1" vertex="1">
          <mxGeometry x="20" y="180" width="60" height="30" as="geometry" />
        </mxCell>
        <mxCell id="o3eAjCkWNtNKVxoIS3OZ-47" value="&lt;font style=&quot;font-size: 25px;&quot;&gt;&lt;b&gt;&lt;i&gt;h&lt;sub&gt;t-1&lt;/sub&gt;&lt;/i&gt;&lt;/b&gt;&lt;/font&gt;" style="text;html=1;strokeColor=none;fillColor=none;align=center;verticalAlign=middle;whiteSpace=wrap;rounded=0;" parent="1" vertex="1">
          <mxGeometry x="10" y="520" width="60" height="30" as="geometry" />
        </mxCell>
        <mxCell id="o3eAjCkWNtNKVxoIS3OZ-48" value="&lt;font style=&quot;font-size: 25px;&quot;&gt;&lt;b&gt;&lt;i&gt;X&lt;sub&gt;t&lt;/sub&gt;&lt;/i&gt;&lt;/b&gt;&lt;/font&gt;" style="text;html=1;strokeColor=none;fillColor=none;align=center;verticalAlign=middle;whiteSpace=wrap;rounded=0;" parent="1" vertex="1">
          <mxGeometry x="110" y="650" width="60" height="30" as="geometry" />
        </mxCell>
        <mxCell id="o3eAjCkWNtNKVxoIS3OZ-49" value="&lt;font style=&quot;font-size: 25px;&quot;&gt;&lt;b&gt;&lt;i&gt;y&lt;sub&gt;t&lt;/sub&gt;&lt;/i&gt;&lt;/b&gt;&lt;/font&gt;" style="text;html=1;strokeColor=none;fillColor=none;align=center;verticalAlign=middle;whiteSpace=wrap;rounded=0;" parent="1" vertex="1">
          <mxGeometry x="930" y="60" width="60" height="30" as="geometry" />
        </mxCell>
        <mxCell id="o3eAjCkWNtNKVxoIS3OZ-50" value="&lt;font style=&quot;&quot;&gt;&lt;b style=&quot;&quot;&gt;&lt;sub style=&quot;&quot;&gt;&lt;span style=&quot;font-size: 25px;&quot;&gt;&lt;i&gt;C&lt;sub&gt;t&lt;/sub&gt;&lt;/i&gt;&lt;/span&gt;&lt;/sub&gt;&lt;/b&gt;&lt;/font&gt;" style="text;html=1;strokeColor=none;fillColor=none;align=center;verticalAlign=middle;whiteSpace=wrap;rounded=0;" parent="1" vertex="1">
          <mxGeometry x="1040" y="200" width="60" height="30" as="geometry" />
        </mxCell>
        <mxCell id="o3eAjCkWNtNKVxoIS3OZ-51" value="&lt;font style=&quot;&quot;&gt;&lt;b style=&quot;&quot;&gt;&lt;sub style=&quot;&quot;&gt;&lt;span style=&quot;font-size: 25px;&quot;&gt;&lt;i&gt;h&lt;sub&gt;t&lt;/sub&gt;&lt;/i&gt;&lt;/span&gt;&lt;/sub&gt;&lt;/b&gt;&lt;/font&gt;" style="text;html=1;strokeColor=none;fillColor=none;align=center;verticalAlign=middle;whiteSpace=wrap;rounded=0;" parent="1" vertex="1">
          <mxGeometry x="1040" y="540" width="60" height="30" as="geometry" />
        </mxCell>
        <mxCell id="o3eAjCkWNtNKVxoIS3OZ-52" value="&lt;font style=&quot;&quot;&gt;&lt;b style=&quot;&quot;&gt;&lt;sub style=&quot;font-size: 30px;&quot;&gt;&lt;span style=&quot;&quot;&gt;&lt;i&gt;f&lt;sub&gt;t&lt;/sub&gt;&lt;/i&gt;&lt;/span&gt;&lt;/sub&gt;&lt;/b&gt;&lt;/font&gt;" style="text;html=1;strokeColor=none;fillColor=none;align=center;verticalAlign=middle;whiteSpace=wrap;rounded=0;" parent="1" vertex="1">
          <mxGeometry x="160" y="400" width="90" height="40" as="geometry" />
        </mxCell>
        <mxCell id="o3eAjCkWNtNKVxoIS3OZ-53" value="&lt;font style=&quot;&quot;&gt;&lt;b style=&quot;&quot;&gt;&lt;sub style=&quot;font-size: 30px;&quot;&gt;&lt;span style=&quot;&quot;&gt;&lt;i&gt;i&lt;sub&gt;t&lt;/sub&gt;&lt;/i&gt;&lt;/span&gt;&lt;/sub&gt;&lt;/b&gt;&lt;/font&gt;" style="text;html=1;strokeColor=none;fillColor=none;align=center;verticalAlign=middle;whiteSpace=wrap;rounded=0;" parent="1" vertex="1">
          <mxGeometry x="330" y="400" width="90" height="40" as="geometry" />
        </mxCell>
        <mxCell id="o3eAjCkWNtNKVxoIS3OZ-54" value="&lt;font style=&quot;&quot;&gt;&lt;b style=&quot;&quot;&gt;&lt;sub style=&quot;font-size: 30px;&quot;&gt;&lt;span style=&quot;&quot;&gt;&lt;i&gt;C&lt;sub&gt;t&lt;/sub&gt;&lt;/i&gt;&lt;/span&gt;&lt;/sub&gt;&lt;/b&gt;&lt;/font&gt;" style="text;html=1;strokeColor=none;fillColor=none;align=center;verticalAlign=middle;whiteSpace=wrap;rounded=0;" parent="1" vertex="1">
          <mxGeometry x="495" y="400" width="90" height="40" as="geometry" />
        </mxCell>
        <mxCell id="o3eAjCkWNtNKVxoIS3OZ-56" value="&lt;font style=&quot;font-size: 24px;&quot;&gt;~&lt;/font&gt;" style="text;html=1;strokeColor=none;fillColor=none;align=center;verticalAlign=middle;whiteSpace=wrap;rounded=0;" parent="1" vertex="1">
          <mxGeometry x="500" y="380" width="70" height="30" as="geometry" />
        </mxCell>
        <mxCell id="o3eAjCkWNtNKVxoIS3OZ-57" value="&lt;font style=&quot;&quot;&gt;&lt;b style=&quot;&quot;&gt;&lt;sub style=&quot;font-size: 30px;&quot;&gt;&lt;span style=&quot;&quot;&gt;&lt;i&gt;o&lt;sub&gt;t&lt;/sub&gt;&lt;/i&gt;&lt;/span&gt;&lt;/sub&gt;&lt;/b&gt;&lt;/font&gt;" style="text;html=1;strokeColor=none;fillColor=none;align=center;verticalAlign=middle;whiteSpace=wrap;rounded=0;" parent="1" vertex="1">
          <mxGeometry x="740" y="351" width="90" height="40" as="geometry" />
        </mxCell>
        <mxCell id="xD0tUnyPSDio4TKRXKtO-1" value="" style="rounded=1;whiteSpace=wrap;html=1;fillColor=none;dashed=1;strokeWidth=2;" parent="1" vertex="1">
          <mxGeometry x="10" y="165" width="1109" height="87" as="geometry" />
        </mxCell>
        <mxCell id="xD0tUnyPSDio4TKRXKtO-2" value="" style="rounded=1;whiteSpace=wrap;html=1;fillColor=none;dashed=1;strokeWidth=2;" parent="1" vertex="1">
          <mxGeometry x="15.5" y="515" width="1109" height="82" as="geometry" />
        </mxCell>
        <mxCell id="xD0tUnyPSDio4TKRXKtO-3" value="" style="rounded=1;whiteSpace=wrap;html=1;fillColor=none;dashed=1;strokeWidth=2;rotation=-90;strokeColor=#f50f0f;" parent="1" vertex="1">
          <mxGeometry x="118.25" y="436.75" width="226.5" height="130" as="geometry" />
        </mxCell>
        <mxCell id="xD0tUnyPSDio4TKRXKtO-4" value="" style="rounded=1;whiteSpace=wrap;html=1;fillColor=none;dashed=1;strokeWidth=2;rotation=-90;strokeColor=#f50f0f;" parent="1" vertex="1">
          <mxGeometry x="286.75" y="436.75" width="226.5" height="130" as="geometry" />
        </mxCell>
        <mxCell id="xD0tUnyPSDio4TKRXKtO-5" value="" style="rounded=1;whiteSpace=wrap;html=1;fillColor=none;dashed=1;strokeWidth=2;rotation=-90;strokeColor=#f50f0f;" parent="1" vertex="1">
          <mxGeometry x="634" y="436.75" width="226.5" height="130" as="geometry" />
        </mxCell>
        <mxCell id="xD0tUnyPSDio4TKRXKtO-6" value="" style="rounded=1;whiteSpace=wrap;html=1;fillColor=none;dashed=1;strokeWidth=2;rotation=-90;strokeColor=#f50f0f;" parent="1" vertex="1">
          <mxGeometry x="764.25" y="211.25" width="213" height="141" as="geometry" />
        </mxCell>
      </root>
    </mxGraphModel>
  </diagram>
</mxfile>
